<svg width="1600" height="1240" viewBox="0 0 1600 1240" fill="none" xmlns="http://www.w3.org/2000/svg">
<defs>
  <linearGradient id="sheet-bg" x1="0" y1="0" x2="1600" y2="1240" gradientUnits="userSpaceOnUse">
    <stop offset="0" stop-color="#031225"/>
    <stop offset="0.52" stop-color="#113356"/>
    <stop offset="1" stop-color="#234D7A"/>
  </linearGradient>
  <radialGradient id="sheet-glow" cx="0" cy="0" r="1" gradientTransform="translate(1140 180) rotate(140) scale(980)">
    <stop stop-color="#7DE4FF" stop-opacity="0.26"/>
    <stop offset="1" stop-color="#7DE4FF" stop-opacity="0"/>
  </radialGradient>
</defs>
<rect width="1600" height="1240" fill="url(#sheet-bg)"/>
<rect width="1600" height="1240" fill="url(#sheet-glow)"/>
<text x="60" y="90" font-family="Helvetica Neue, Arial, sans-serif" font-size="72" font-weight="800" fill="#F4FAFF">Producer Player icon refinement options</text>
<text x="60" y="132" font-family="Helvetica Neue, Arial, sans-serif" font-size="28" font-weight="500" fill="#B0D2E8">Ordering / sequencing first, still rooted in the original Neural Playhead feel</text>

    <rect x="60" y="170" width="680" height="462" rx="36" fill="#081325" fill-opacity="0.82" stroke="#8FDFFF" stroke-opacity="0.12" stroke-width="2"/>
    <g transform="translate(102 250) scale(0.39)">
      
    <defs>
      <linearGradient id="card_01_sequence_orbit_pro-bg" x1="90" y1="50" x2="940" y2="980" gradientUnits="userSpaceOnUse">
        <stop offset="0" stop-color="#06101C"/>
        <stop offset="0.54" stop-color="#0F2847"/>
        <stop offset="1" stop-color="#1D5588"/>
      </linearGradient>
      <radialGradient id="card_01_sequence_orbit_pro-glow" cx="0" cy="0" r="1" gradientTransform="translate(760 220) rotate(135) scale(560)">
        <stop stop-color="#7DE4FF" stop-opacity="0.34"/>
        <stop offset="1" stop-color="#7DE4FF" stop-opacity="0"/>
      </radialGradient>
      <linearGradient id="card_01_sequence_orbit_pro-ring" x1="250" y1="230" x2="780" y2="780" gradientUnits="userSpaceOnUse">
        <stop offset="0" stop-color="#7DE4FF"/>
        <stop offset="1" stop-color="#3C95FF"/>
      </linearGradient>
      <linearGradient id="card_01_sequence_orbit_pro-track" x1="220" y1="260" x2="800" y2="700" gradientUnits="userSpaceOnUse">
        <stop offset="0" stop-color="#99EEFF" stop-opacity="0.92"/>
        <stop offset="1" stop-color="#3C95FF" stop-opacity="0.88"/>
      </linearGradient>
      <filter id="card_01_sequence_orbit_pro-blur" x="-30%" y="-30%" width="160%" height="160%">
        <feGaussianBlur stdDeviation="18"/>
      </filter>
      <filter id="card_01_sequence_orbit_pro-softblur" x="-30%" y="-30%" width="160%" height="160%">
        <feGaussianBlur stdDeviation="9"/>
      </filter>
      <filter id="card_01_sequence_orbit_pro-shadow" x="-30%" y="-30%" width="160%" height="160%">
        <feDropShadow dx="0" dy="18" stdDeviation="24" flood-color="#020913" flood-opacity="0.45"/>
      </filter>
    </defs>
    
      
    <rect x="32" y="32" width="960" height="960" rx="220" fill="url(#card_01_sequence_orbit_pro-bg)"/>
    <rect x="32" y="32" width="960" height="960" rx="220" fill="url(#card_01_sequence_orbit_pro-glow)"/>
    <rect x="48" y="48" width="928" height="928" rx="204" fill="none" stroke="#8FDFFF" stroke-opacity="0.10" stroke-width="2"/>
    
      
    <rect x="186" y="258" width="548" height="90" rx="44" fill="#D4F3FF" fill-opacity="0.12"/>

    <circle cx="232" cy="303.0" r="24.0" fill="#7DE4FF" fill-opacity="0.97"/>
    <text x="232" y="314.9" text-anchor="middle" font-family="Helvetica Neue, Arial, sans-serif" font-size="34.0" font-weight="800" fill="#071B31">1</text>
    
<path d="M286 303.0H654.0" stroke="url(#card_01_sequence_orbit_pro-track)" stroke-width="16" stroke-linecap="round" stroke-opacity="0.78"/>
    <rect x="186" y="388" width="580" height="90" rx="44" fill="#D4F3FF" fill-opacity="0.18"/>

    <circle cx="232" cy="433.0" r="24.0" fill="#7DE4FF" fill-opacity="0.97"/>
    <text x="232" y="444.9" text-anchor="middle" font-family="Helvetica Neue, Arial, sans-serif" font-size="34.0" font-weight="800" fill="#071B31">2</text>
    
<path d="M286 433.0H686.0" stroke="url(#card_01_sequence_orbit_pro-track)" stroke-width="16" stroke-linecap="round" stroke-opacity="0.95"/>
<path d="M672.0 399.0L744.0 433.0L672.0 467.0Z" fill="url(#card_01_sequence_orbit_pro-ring)" fill-opacity="0.88"/>
    <rect x="186" y="518" width="516" height="90" rx="44" fill="#D4F3FF" fill-opacity="0.12"/>

    <circle cx="232" cy="563.0" r="24.0" fill="#7DE4FF" fill-opacity="0.97"/>
    <text x="232" y="574.9" text-anchor="middle" font-family="Helvetica Neue, Arial, sans-serif" font-size="34.0" font-weight="800" fill="#071B31">3</text>
    
<path d="M286 563.0H561.52" stroke="url(#card_01_sequence_orbit_pro-track)" stroke-width="16" stroke-linecap="round" stroke-opacity="0.78"/>
    <path d="M726 434H806" stroke="url(#card_01_sequence_orbit_pro-track)" stroke-width="18" stroke-linecap="round" opacity="0.72"/>
    <circle cx="760" cy="434" r="168.95999999999998" stroke="#73DBFF" stroke-opacity="0.14" stroke-width="23.04"/>
<circle cx="760" cy="434" r="132.48" stroke="url(#card_01_sequence_orbit_pro-ring)" stroke-opacity="0.42" stroke-width="9.6"/>
<circle cx="760" cy="434" r="92.16" fill="#0A1C33" stroke="#1D4D7C" stroke-width="7.68"/>
<circle cx="760" cy="434" r="188.15999999999997" stroke="#8AE8FF" stroke-opacity="0.08" stroke-width="5.76" stroke-dasharray="17.28 28.799999999999997"/>
<circle cx="760.0" cy="265.0" r="9.6" fill="#7DE4FF"/>
<circle cx="929.0" cy="434.0" r="9.6" fill="#7DE4FF"/>
<circle cx="760.0" cy="603.0" r="9.6" fill="#7DE4FF"/>
<circle cx="591.0" cy="434.0" r="9.6" fill="#7DE4FF"/>
<path d="M726.9 370.6C726.9 358.6 739.9 352.6 756.9 361.6L819.8 434.0C837.8 444.0 837.8 424.0 819.8 434.0L756.9 506.4C739.9 515.4 726.9 509.4 726.9 497.4Z" fill="url(#card_01_sequence_orbit_pro-ring)"/>
    
    </g>
    <text x="102" y="558" font-family="Helvetica Neue, Arial, sans-serif" font-size="46" font-weight="800" fill="#F4FAFF">Sequence Orbit Pro</text>
    <text x="102" y="600" font-family="Helvetica Neue, Arial, sans-serif" font-size="24" font-weight="500" fill="#A9CBE3">closest to Neural Playhead, ordering made explicit</text>
    
    <rect x="860" y="170" width="680" height="462" rx="36" fill="#081325" fill-opacity="0.82" stroke="#8FDFFF" stroke-opacity="0.12" stroke-width="2"/>
    <g transform="translate(902 250) scale(0.39)">
      
    <defs>
      <linearGradient id="card_02_queue_halo-bg" x1="90" y1="50" x2="940" y2="980" gradientUnits="userSpaceOnUse">
        <stop offset="0" stop-color="#06101C"/>
        <stop offset="0.54" stop-color="#0F2847"/>
        <stop offset="1" stop-color="#1D5588"/>
      </linearGradient>
      <radialGradient id="card_02_queue_halo-glow" cx="0" cy="0" r="1" gradientTransform="translate(760 220) rotate(135) scale(560)">
        <stop stop-color="#7DE4FF" stop-opacity="0.34"/>
        <stop offset="1" stop-color="#7DE4FF" stop-opacity="0"/>
      </radialGradient>
      <linearGradient id="card_02_queue_halo-ring" x1="250" y1="230" x2="780" y2="780" gradientUnits="userSpaceOnUse">
        <stop offset="0" stop-color="#7DE4FF"/>
        <stop offset="1" stop-color="#3C95FF"/>
      </linearGradient>
      <linearGradient id="card_02_queue_halo-track" x1="220" y1="260" x2="800" y2="700" gradientUnits="userSpaceOnUse">
        <stop offset="0" stop-color="#99EEFF" stop-opacity="0.92"/>
        <stop offset="1" stop-color="#3C95FF" stop-opacity="0.88"/>
      </linearGradient>
      <filter id="card_02_queue_halo-blur" x="-30%" y="-30%" width="160%" height="160%">
        <feGaussianBlur stdDeviation="18"/>
      </filter>
      <filter id="card_02_queue_halo-softblur" x="-30%" y="-30%" width="160%" height="160%">
        <feGaussianBlur stdDeviation="9"/>
      </filter>
      <filter id="card_02_queue_halo-shadow" x="-30%" y="-30%" width="160%" height="160%">
        <feDropShadow dx="0" dy="18" stdDeviation="24" flood-color="#020913" flood-opacity="0.45"/>
      </filter>
    </defs>
    
      
    <rect x="32" y="32" width="960" height="960" rx="220" fill="url(#card_02_queue_halo-bg)"/>
    <rect x="32" y="32" width="960" height="960" rx="220" fill="url(#card_02_queue_halo-glow)"/>
    <rect x="48" y="48" width="928" height="928" rx="204" fill="none" stroke="#8FDFFF" stroke-opacity="0.10" stroke-width="2"/>
    
      
    <g filter="url(#card_02_queue_halo-shadow)">
      <rect x="190" y="286" width="430" height="104" rx="40" fill="#D4F3FF" fill-opacity="0.10"/>
      <rect x="238" y="408" width="490" height="108" rx="42" fill="#D4F3FF" fill-opacity="0.17"/>
      <rect x="286" y="536" width="550" height="112" rx="46" fill="#D4F3FF" fill-opacity="0.12"/>
    </g>
    
    <circle cx="248" cy="338" r="24.0" fill="#7DE4FF" fill-opacity="0.97"/>
    <text x="248" y="349.9" text-anchor="middle" font-family="Helvetica Neue, Arial, sans-serif" font-size="34.0" font-weight="800" fill="#071B31">1</text>
    
    
    <circle cx="296" cy="462" r="24.0" fill="#7DE4FF" fill-opacity="0.97"/>
    <text x="296" y="473.9" text-anchor="middle" font-family="Helvetica Neue, Arial, sans-serif" font-size="34.0" font-weight="800" fill="#071B31">2</text>
    
    
    <circle cx="344" cy="592" r="24.0" fill="#7DE4FF" fill-opacity="0.97"/>
    <text x="344" y="603.9" text-anchor="middle" font-family="Helvetica Neue, Arial, sans-serif" font-size="34.0" font-weight="800" fill="#071B31">3</text>
    
    <path d="M318 338H562" stroke="url(#card_02_queue_halo-track)" stroke-width="16" stroke-linecap="round" opacity="0.78"/>
    <path d="M366 462H678" stroke="url(#card_02_queue_halo-track)" stroke-width="18" stroke-linecap="round" opacity="0.95"/>
    <path d="M414 592H722" stroke="url(#card_02_queue_halo-track)" stroke-width="16" stroke-linecap="round" opacity="0.72"/>
    <g filter="url(#card_02_queue_halo-blur)" opacity="0.55">
      <circle cx="708" cy="462" r="150" fill="url(#card_02_queue_halo-ring)"/>
    </g>
    <circle cx="708" cy="462" r="151.35999999999999" stroke="#73DBFF" stroke-opacity="0.14" stroke-width="20.64"/>
<circle cx="708" cy="462" r="118.67999999999999" stroke="url(#card_02_queue_halo-ring)" stroke-opacity="0.42" stroke-width="8.6"/>
<circle cx="708" cy="462" r="82.56" fill="#0A1C33" stroke="#1D4D7C" stroke-width="6.88"/>
<circle cx="708" cy="462" r="168.55999999999997" stroke="#8AE8FF" stroke-opacity="0.08" stroke-width="5.16" stroke-dasharray="15.48 25.8"/>
<circle cx="708.0" cy="310.6" r="8.6" fill="#7DE4FF"/>
<circle cx="839.1" cy="386.3" r="8.6" fill="#7DE4FF"/>
<circle cx="839.1" cy="537.7" r="8.6" fill="#7DE4FF"/>
<circle cx="708.0" cy="613.4" r="8.6" fill="#7DE4FF"/>
<circle cx="576.9" cy="537.7" r="8.6" fill="#7DE4FF"/>
<circle cx="576.9" cy="386.3" r="8.6" fill="#7DE4FF"/>
<path d="M678.3 405.2C678.3 393.2 691.3 387.2 708.3 396.2L761.6 462.0C779.6 472.0 779.6 452.0 761.6 462.0L708.3 527.8C691.3 536.8 678.3 530.8 678.3 518.8Z" fill="url(#card_02_queue_halo-ring)"/>
    
    </g>
    <text x="902" y="558" font-family="Helvetica Neue, Arial, sans-serif" font-size="46" font-weight="800" fill="#F4FAFF">Queue Halo</text>
    <text x="902" y="600" font-family="Helvetica Neue, Arial, sans-serif" font-size="24" font-weight="500" fill="#A9CBE3">playlist cards feeding a premium playhead</text>
    
    <rect x="60" y="690" width="680" height="462" rx="36" fill="#081325" fill-opacity="0.82" stroke="#8FDFFF" stroke-opacity="0.12" stroke-width="2"/>
    <g transform="translate(102 770) scale(0.39)">
      
    <defs>
      <linearGradient id="card_03_playlist_spine-bg" x1="90" y1="50" x2="940" y2="980" gradientUnits="userSpaceOnUse">
        <stop offset="0" stop-color="#06101C"/>
        <stop offset="0.54" stop-color="#0F2847"/>
        <stop offset="1" stop-color="#1D5588"/>
      </linearGradient>
      <radialGradient id="card_03_playlist_spine-glow" cx="0" cy="0" r="1" gradientTransform="translate(760 220) rotate(135) scale(560)">
        <stop stop-color="#7DE4FF" stop-opacity="0.34"/>
        <stop offset="1" stop-color="#7DE4FF" stop-opacity="0"/>
      </radialGradient>
      <linearGradient id="card_03_playlist_spine-ring" x1="250" y1="230" x2="780" y2="780" gradientUnits="userSpaceOnUse">
        <stop offset="0" stop-color="#7DE4FF"/>
        <stop offset="1" stop-color="#3C95FF"/>
      </linearGradient>
      <linearGradient id="card_03_playlist_spine-track" x1="220" y1="260" x2="800" y2="700" gradientUnits="userSpaceOnUse">
        <stop offset="0" stop-color="#99EEFF" stop-opacity="0.92"/>
        <stop offset="1" stop-color="#3C95FF" stop-opacity="0.88"/>
      </linearGradient>
      <filter id="card_03_playlist_spine-blur" x="-30%" y="-30%" width="160%" height="160%">
        <feGaussianBlur stdDeviation="18"/>
      </filter>
      <filter id="card_03_playlist_spine-softblur" x="-30%" y="-30%" width="160%" height="160%">
        <feGaussianBlur stdDeviation="9"/>
      </filter>
      <filter id="card_03_playlist_spine-shadow" x="-30%" y="-30%" width="160%" height="160%">
        <feDropShadow dx="0" dy="18" stdDeviation="24" flood-color="#020913" flood-opacity="0.45"/>
      </filter>
    </defs>
    
      
    <rect x="32" y="32" width="960" height="960" rx="220" fill="url(#card_03_playlist_spine-bg)"/>
    <rect x="32" y="32" width="960" height="960" rx="220" fill="url(#card_03_playlist_spine-glow)"/>
    <rect x="48" y="48" width="928" height="928" rx="204" fill="none" stroke="#8FDFFF" stroke-opacity="0.10" stroke-width="2"/>
    
      
    <path d="M240 304H414L492 414H636L710 520H804" fill="none" stroke="url(#card_03_playlist_spine-track)" stroke-width="20" stroke-linecap="round" stroke-linejoin="round"/>
    <path d="M240 304V720H560" fill="none" stroke="#86E7FF" stroke-opacity="0.28" stroke-width="8" stroke-linecap="round"/>
    
    <circle cx="240" cy="304" r="24.0" fill="#7DE4FF" fill-opacity="0.97"/>
    <text x="240" y="315.9" text-anchor="middle" font-family="Helvetica Neue, Arial, sans-serif" font-size="34.0" font-weight="800" fill="#071B31">1</text>
    
    
    <circle cx="492" cy="414" r="24.0" fill="#7DE4FF" fill-opacity="0.97"/>
    <text x="492" y="425.9" text-anchor="middle" font-family="Helvetica Neue, Arial, sans-serif" font-size="34.0" font-weight="800" fill="#071B31">2</text>
    
    
    <circle cx="710" cy="520" r="24.0" fill="#7DE4FF" fill-opacity="0.97"/>
    <text x="710" y="531.9" text-anchor="middle" font-family="Helvetica Neue, Arial, sans-serif" font-size="34.0" font-weight="800" fill="#071B31">3</text>
    
    <rect x="222" y="610" width="382" height="96" rx="42" fill="#D4F3FF" fill-opacity="0.11"/>
    <path d="M300 658H528" stroke="url(#card_03_playlist_spine-track)" stroke-width="16" stroke-linecap="round" opacity="0.78"/>
    <circle cx="762" cy="520" r="144.32" stroke="#73DBFF" stroke-opacity="0.14" stroke-width="19.68"/>
<circle cx="762" cy="520" r="113.16" stroke="url(#card_03_playlist_spine-ring)" stroke-opacity="0.42" stroke-width="8.2"/>
<circle cx="762" cy="520" r="78.72" fill="#0A1C33" stroke="#1D4D7C" stroke-width="6.56"/>
<circle cx="762" cy="520" r="160.72" stroke="#8AE8FF" stroke-opacity="0.08" stroke-width="4.92" stroke-dasharray="14.76 24.599999999999998"/>
<circle cx="762.0" cy="375.7" r="8.2" fill="#7DE4FF"/>
<circle cx="906.3" cy="520.0" r="8.2" fill="#7DE4FF"/>
<circle cx="762.0" cy="664.3" r="8.2" fill="#7DE4FF"/>
<circle cx="617.7" cy="520.0" r="8.2" fill="#7DE4FF"/>
<path d="M733.7 465.9C733.7 453.9 746.7 447.9 763.7 456.9L813.1 520.0C831.1 530.0 831.1 510.0 813.1 520.0L763.7 583.1C746.7 592.1 733.7 586.1 733.7 574.1Z" fill="url(#card_03_playlist_spine-ring)"/>
    
    </g>
    <text x="102" y="1078" font-family="Helvetica Neue, Arial, sans-serif" font-size="46" font-weight="800" fill="#F4FAFF">Playlist Spine</text>
    <text x="102" y="1120" font-family="Helvetica Neue, Arial, sans-serif" font-size="24" font-weight="500" fill="#A9CBE3">numbered path + producer-style intelligence cue</text>
    
    <rect x="860" y="690" width="680" height="462" rx="36" fill="#081325" fill-opacity="0.82" stroke="#8FDFFF" stroke-opacity="0.12" stroke-width="2"/>
    <g transform="translate(902 770) scale(0.39)">
      
    <defs>
      <linearGradient id="card_04_track_ladder_pro-bg" x1="90" y1="50" x2="940" y2="980" gradientUnits="userSpaceOnUse">
        <stop offset="0" stop-color="#06101C"/>
        <stop offset="0.54" stop-color="#0F2847"/>
        <stop offset="1" stop-color="#1D5588"/>
      </linearGradient>
      <radialGradient id="card_04_track_ladder_pro-glow" cx="0" cy="0" r="1" gradientTransform="translate(760 220) rotate(135) scale(560)">
        <stop stop-color="#7DE4FF" stop-opacity="0.34"/>
        <stop offset="1" stop-color="#7DE4FF" stop-opacity="0"/>
      </radialGradient>
      <linearGradient id="card_04_track_ladder_pro-ring" x1="250" y1="230" x2="780" y2="780" gradientUnits="userSpaceOnUse">
        <stop offset="0" stop-color="#7DE4FF"/>
        <stop offset="1" stop-color="#3C95FF"/>
      </linearGradient>
      <linearGradient id="card_04_track_ladder_pro-track" x1="220" y1="260" x2="800" y2="700" gradientUnits="userSpaceOnUse">
        <stop offset="0" stop-color="#99EEFF" stop-opacity="0.92"/>
        <stop offset="1" stop-color="#3C95FF" stop-opacity="0.88"/>
      </linearGradient>
      <filter id="card_04_track_ladder_pro-blur" x="-30%" y="-30%" width="160%" height="160%">
        <feGaussianBlur stdDeviation="18"/>
      </filter>
      <filter id="card_04_track_ladder_pro-softblur" x="-30%" y="-30%" width="160%" height="160%">
        <feGaussianBlur stdDeviation="9"/>
      </filter>
      <filter id="card_04_track_ladder_pro-shadow" x="-30%" y="-30%" width="160%" height="160%">
        <feDropShadow dx="0" dy="18" stdDeviation="24" flood-color="#020913" flood-opacity="0.45"/>
      </filter>
    </defs>
    
      
    <rect x="32" y="32" width="960" height="960" rx="220" fill="url(#card_04_track_ladder_pro-bg)"/>
    <rect x="32" y="32" width="960" height="960" rx="220" fill="url(#card_04_track_ladder_pro-glow)"/>
    <rect x="48" y="48" width="928" height="928" rx="204" fill="none" stroke="#8FDFFF" stroke-opacity="0.10" stroke-width="2"/>
    
      
    <path d="M210 292V624" stroke="#86E7FF" stroke-opacity="0.34" stroke-width="10" stroke-linecap="round"/>
    <circle cx="210" cy="292" r="12" fill="#7DE4FF"/>
    <circle cx="210" cy="458" r="12" fill="#7DE4FF"/>
    <circle cx="210" cy="624" r="12" fill="#7DE4FF"/>
    <rect x="236" y="248" width="574" height="90" rx="44" fill="#D4F3FF" fill-opacity="0.12"/>

    <circle cx="282" cy="293.0" r="24.0" fill="#7DE4FF" fill-opacity="0.97"/>
    <text x="282" y="304.9" text-anchor="middle" font-family="Helvetica Neue, Arial, sans-serif" font-size="34.0" font-weight="800" fill="#071B31">1</text>
    
<path d="M336 293.0H730.0" stroke="url(#card_04_track_ladder_pro-track)" stroke-width="16" stroke-linecap="round" stroke-opacity="0.78"/>
    <rect x="236" y="414" width="574" height="90" rx="44" fill="#D4F3FF" fill-opacity="0.18"/>

    <circle cx="282" cy="459.0" r="24.0" fill="#7DE4FF" fill-opacity="0.97"/>
    <text x="282" y="470.9" text-anchor="middle" font-family="Helvetica Neue, Arial, sans-serif" font-size="34.0" font-weight="800" fill="#071B31">2</text>
    
<path d="M336 459.0H730.0" stroke="url(#card_04_track_ladder_pro-track)" stroke-width="16" stroke-linecap="round" stroke-opacity="0.95"/>
<path d="M716.0 425.0L788.0 459.0L716.0 493.0Z" fill="url(#card_04_track_ladder_pro-ring)" fill-opacity="0.88"/>
    <rect x="236" y="580" width="574" height="90" rx="44" fill="#D4F3FF" fill-opacity="0.12"/>

    <circle cx="282" cy="625.0" r="24.0" fill="#7DE4FF" fill-opacity="0.97"/>
    <text x="282" y="636.9" text-anchor="middle" font-family="Helvetica Neue, Arial, sans-serif" font-size="34.0" font-weight="800" fill="#071B31">3</text>
    
<path d="M336 625.0H643.3199999999999" stroke="url(#card_04_track_ladder_pro-track)" stroke-width="16" stroke-linecap="round" stroke-opacity="0.78"/>
    
    </g>
    <text x="902" y="1078" font-family="Helvetica Neue, Arial, sans-serif" font-size="46" font-weight="800" fill="#F4FAFF">Track Ladder Pro</text>
    <text x="902" y="1120" font-family="Helvetica Neue, Arial, sans-serif" font-size="24" font-weight="500" fill="#A9CBE3">cleanest list-order metaphor, still music-first</text>
    
</svg>
