<svg width="1024" height="1024" viewBox="0 0 1024 1024" fill="none" xmlns="http://www.w3.org/2000/svg">
    
    <defs>
      <linearGradient id="02_queue_halo-bg" x1="90" y1="50" x2="940" y2="980" gradientUnits="userSpaceOnUse">
        <stop offset="0" stop-color="#06101C"/>
        <stop offset="0.54" stop-color="#0F2847"/>
        <stop offset="1" stop-color="#1D5588"/>
      </linearGradient>
      <radialGradient id="02_queue_halo-glow" cx="0" cy="0" r="1" gradientTransform="translate(760 220) rotate(135) scale(560)">
        <stop stop-color="#7DE4FF" stop-opacity="0.34"/>
        <stop offset="1" stop-color="#7DE4FF" stop-opacity="0"/>
      </radialGradient>
      <linearGradient id="02_queue_halo-ring" x1="250" y1="230" x2="780" y2="780" gradientUnits="userSpaceOnUse">
        <stop offset="0" stop-color="#7DE4FF"/>
        <stop offset="1" stop-color="#3C95FF"/>
      </linearGradient>
      <linearGradient id="02_queue_halo-track" x1="220" y1="260" x2="800" y2="700" gradientUnits="userSpaceOnUse">
        <stop offset="0" stop-color="#99EEFF" stop-opacity="0.92"/>
        <stop offset="1" stop-color="#3C95FF" stop-opacity="0.88"/>
      </linearGradient>
      <filter id="02_queue_halo-blur" x="-30%" y="-30%" width="160%" height="160%">
        <feGaussianBlur stdDeviation="18"/>
      </filter>
      <filter id="02_queue_halo-softblur" x="-30%" y="-30%" width="160%" height="160%">
        <feGaussianBlur stdDeviation="9"/>
      </filter>
      <filter id="02_queue_halo-shadow" x="-30%" y="-30%" width="160%" height="160%">
        <feDropShadow dx="0" dy="18" stdDeviation="24" flood-color="#020913" flood-opacity="0.45"/>
      </filter>
    </defs>
    
    
    <rect x="32" y="32" width="960" height="960" rx="220" fill="url(#02_queue_halo-bg)"/>
    <rect x="32" y="32" width="960" height="960" rx="220" fill="url(#02_queue_halo-glow)"/>
    <rect x="48" y="48" width="928" height="928" rx="204" fill="none" stroke="#8FDFFF" stroke-opacity="0.10" stroke-width="2"/>
    
    
    <g filter="url(#02_queue_halo-shadow)">
      <rect x="190" y="286" width="430" height="104" rx="40" fill="#D4F3FF" fill-opacity="0.10"/>
      <rect x="238" y="408" width="490" height="108" rx="42" fill="#D4F3FF" fill-opacity="0.17"/>
      <rect x="286" y="536" width="550" height="112" rx="46" fill="#D4F3FF" fill-opacity="0.12"/>
    </g>
    
    <circle cx="248" cy="338" r="24.0" fill="#7DE4FF" fill-opacity="0.97"/>
    <text x="248" y="349.9" text-anchor="middle" font-family="Helvetica Neue, Arial, sans-serif" font-size="34.0" font-weight="800" fill="#071B31">1</text>
    
    
    <circle cx="296" cy="462" r="24.0" fill="#7DE4FF" fill-opacity="0.97"/>
    <text x="296" y="473.9" text-anchor="middle" font-family="Helvetica Neue, Arial, sans-serif" font-size="34.0" font-weight="800" fill="#071B31">2</text>
    
    
    <circle cx="344" cy="592" r="24.0" fill="#7DE4FF" fill-opacity="0.97"/>
    <text x="344" y="603.9" text-anchor="middle" font-family="Helvetica Neue, Arial, sans-serif" font-size="34.0" font-weight="800" fill="#071B31">3</text>
    
    <path d="M318 338H562" stroke="url(#02_queue_halo-track)" stroke-width="16" stroke-linecap="round" opacity="0.78"/>
    <path d="M366 462H678" stroke="url(#02_queue_halo-track)" stroke-width="18" stroke-linecap="round" opacity="0.95"/>
    <path d="M414 592H722" stroke="url(#02_queue_halo-track)" stroke-width="16" stroke-linecap="round" opacity="0.72"/>
    <g filter="url(#02_queue_halo-blur)" opacity="0.55">
      <circle cx="708" cy="462" r="150" fill="url(#02_queue_halo-ring)"/>
    </g>
    <circle cx="708" cy="462" r="151.35999999999999" stroke="#73DBFF" stroke-opacity="0.14" stroke-width="20.64"/>
<circle cx="708" cy="462" r="118.67999999999999" stroke="url(#02_queue_halo-ring)" stroke-opacity="0.42" stroke-width="8.6"/>
<circle cx="708" cy="462" r="82.56" fill="#0A1C33" stroke="#1D4D7C" stroke-width="6.88"/>
<circle cx="708" cy="462" r="168.55999999999997" stroke="#8AE8FF" stroke-opacity="0.08" stroke-width="5.16" stroke-dasharray="15.48 25.8"/>
<circle cx="708.0" cy="310.6" r="8.6" fill="#7DE4FF"/>
<circle cx="839.1" cy="386.3" r="8.6" fill="#7DE4FF"/>
<circle cx="839.1" cy="537.7" r="8.6" fill="#7DE4FF"/>
<circle cx="708.0" cy="613.4" r="8.6" fill="#7DE4FF"/>
<circle cx="576.9" cy="537.7" r="8.6" fill="#7DE4FF"/>
<circle cx="576.9" cy="386.3" r="8.6" fill="#7DE4FF"/>
<path d="M678.3 405.2C678.3 393.2 691.3 387.2 708.3 396.2L761.6 462.0C779.6 472.0 779.6 452.0 761.6 462.0L708.3 527.8C691.3 536.8 678.3 530.8 678.3 518.8Z" fill="url(#02_queue_halo-ring)"/>
    
    </svg>
    